<svg xmlns="http://www.w3.org/2000/svg" version="1.1" xmlnsxlink="http://www.w3.org/1999/xlink"
    xmlnssvgjs="http://svgjs.dev/svgjs" viewBox="0 0 1422 800" opacity="0.18">
    <defs>
        <linearGradient x1="50%" y1="0%" x2="50%" y2="100%" id="ssscribble-grad">
            <stop stop-color="hsl(105, 69%, 40%)" stop-opacity="1" offset="0%"></stop>
            <stop stop-color="hsl(105, 69%, 60%)" stop-opacity="1" offset="100%"></stop>
        </linearGradient>
    </defs>
    <g fill="none" stroke-width="1.5" stroke="hsl(105, 69%, 30%)" stroke-linecap="round">
        <path
            d="M1631.6 262.59C1587.63 279.85 1565.89 297.39 1569.82 315.2 1598.76 333.04 1646.58 351.22 1704.3 369.77 1762.28 388.45 1809.43 407.61 1837.59 427.34 1842.43 447.3 1822.54 467.97 1781.32 489.42 1663.08 533.43 1557.59 581.4 1521.79 633.78 1569.96 687.96 1664.51 746.37 1745.07 808.05 1765.51 868.84 1708.72 929.52 1601.22 986.84 1488.46 1036.45 1416.7 1076.59 1406.64 1103.5 1453.5 1116.65 1525.13 1114.22 1584.21 1096.96 1605.8 1072.26 1574.71 1042.35 1500.16 1014.99 1400.06 1001.46 1300.86 1005.84 1222.93 1033.81 1176.54 1086.39 1164.35 1159 1177.65 1242.72 1209.3 1323.66 1242.36 1388.74 1266.01 1425.06 1278.19 1427.27 1270.94 1395.45 1246.07 1338.9 1206.73 1277.8 1156.29 1228.77 1100.36 1209.86 1039 1232.24 978.67 1292.2 922.11 1375.96 893.69 1419.86 866.58 1460.78 840.86 1495.57 815.24 1521.7 791.04 1536.91 768.26 1539.85 745.57 1530.69 724.25 1509.73 704.3 1478.63 684.37 1440.68 665.77 1398.5 648.51 1355.76 631.25 1316.91 615.54 1285.08 601.38 1262.87 587.24 1252.31 574.7 1253.74 563.77 1266.68 552.93 1290.31 543.76 1321.83 536.28 1358.29 528.89 1397.2 523.17 1434.47 519.04 1466.97 510.51 1509.2 506.89 1508.34 505.62 1464.56 498.93 1389.62 488.06 1302.19 467.58 1223.42 432.63 1170.13 381.55 1151.14 312.69 1165.04 232.37 1205.68 144.28 1256.53 59.43 1302.1 -7.06 1332.6 -46.25 1336.45 -49.24 1311.98 -20.7 1262.45 31.09 1194.16 85.95 1116.89 115.26 1038.15 103.26 967.36 40.92 909.76 -58.91 867.59 -168.97 841.5 -251.78 828.75 -277.66 828.42 -239.34 834.32 -157.38 841.97 -80.67 852.04 -52 857.81 -97.75 857.45 -203.6 853.86 -320.63 842.86 -388.28 825.14 -371.96 803.84 -282.96 777.31 -178.03 747.05 -143.47 731.21 -129.45 714.77 -139.35 697.9 -172.57 680.76 -223.96 663.36 -285.36 645.84 -346.5 628.19 -396.9 610.54 -427.57 592.98 -433.22 575.39 -412.36 557.94 -368.39 540.68 -309.88 523.42 -247.45 506.56 -192.36 490.06 -154.32 473.54 -139.55 457.32 -149.95 441.35 -183.64 425.25 -233.63 409.28 -290.68 393.32 -345.5 377.09 -387.71 360.69 -410.17 343.99 -385.36 309.15 -283.77 271.73 -164.53 230.41 -91.57 185.5 -98.92 135.2 -171.63 78.98 -265.04 19.52 -320.2 -44.57 -305.66 -111.32 -225.02 -175.65 -111.32 -236.58 -9.87 -289.44 45.39 -329.9 41.68 -355.2 -6.37 -362.42 -74.47 -354.2 -126.36 -330.81 -139.84 -297.32 -108.57 -265.29 -37.33 -240.08 55.45 -231.3 153.19 -247.58 235.58 -289.87 292.78 -356.3 322.01 -437.81 326.31 -522.11 314.8 -593.54 291.52 -638.24 269.62 -647.38 255.75 -619.4 248.43 -565.94 254.5 -500.98 272.57 -445.52 298.95 -421.21 333.49 -436.82 372.55 -492.37 393.52 -531.52 414.83 -574.66 436.16 -618.62 457.97 -660.15 479.43 -695.91 500.31 -722.96 521.39 -739.33 541.68 -743.34 561.03 -734.51 580.42 -714.04 598.78 -683.09 616.04 -644.24 633.3 -601.51 649.25 -558.44 663.95 -518.76 685.47 -474.16 723.49 -454.81 740.74 -481.35 752.52 -511.08 764.04 -546.13 775.62 -583.36 801.65 -653.81 831.07 -697.3 867.31 -700.21 911.87 -661.82 967.1 -590.33 1034.24 -503.92 1107.93 -422.07 1188.16 -362.12 1268.12 -333.53 1336.3 -339.06 1387.03 -370.69 1410.99 -415.68 1406.99 -463.46 1375.99 -497.64 1327.64 -509.46 1284.23 -496.68 1260.39 -457.99 1274.36 -399.22 1333.08 -326.61 1428.05 -249.31 1536.91 -175.22 1625.73 -108.57 1667.88 -54.75 1648.55 -14.71 1542.91 19.02 1510.83 31.72 1671.18 29.58 1769.2 27.71 1799.02 30.61 1745.55 39.06 1645.78 49.3 1560.67 65.27 1549.18 86.36 1578.31 97.45 1626.38 109.62 1686.26 122.76 1748.37 136.14 1802.6 150.35 1839.71 165.29 1853.53 180.35 1841.34 196.03 1805.03 212.28 1751.66 228.56 1690.11 245.34 1631.6 262.59Q1631.6 262.59 1631.6 262.59"
            opacity="0.08"></path>
        <path
            d="M1569.1 378.44C1505.04 410.8 1527.41 446.87 1618.92 486.41 1725 525.98 1779.42 569.01 1751.08 615.11 1655.33 660.91 1541.98 709.11 1467.28 758.61 1464.17 806.15 1526.1 852.82 1614.21 896.46 1683.74 934.61 1695.22 966.27 1642.06 988.94 1543.52 1002.86 1436.61 1005.92 1357.43 997.85 1327.53 983.6 1348.45 962.67 1401.91 939.28 1465.95 922.02 1510.35 912.99 1518.66 918.06 1487.22 942.27 1420.76 985.69 1334.77 1047.21 1242.63 1120.7 1161.76 1198.81 1101.29 1270.9 1057.16 1340.93 1077.57 1303.23 1101.98 1220.76 1114.77 1172.71 1117.51 1146.41 1110.01 1152.65 1096.28 1194.68 1074.04 1264.29 1045.88 1346.27 1014.18 1420.72 979.84 1468.15 944.99 1474.93 909.26 1440.73 874.79 1373.63 842.43 1293.26 810.07 1226.3 780.58 1191.57 753.29 1197.59 725.1 1242.51 697.33 1309.76 668.01 1378.47 635.14 1430.94 597.43 1449.68 552.45 1429.7 501.23 1376.03 441.02 1299.97 372.14 1218.41 300.99 1147.25 227.63 1099.27 158.64 1080.16 103.23 1090.77 65.78 1122.99 52.97 1165.75 63.56 1210.62 96.26 1243.67 142.1 1257.53 181.79 1250.3 203.81 1219.9 192.84 1170.55 142.12 1106.97 57.33 1036.27 -44.92 965.3 -136.59 897.67 -193.54 839.01 -197.33 791.21 -151.85 754.56 -76.3 728.74 -6.63 711.46 17.67 702.51 -20.18 697.64 -113.43 694.05 -266.75 691.98 -218.02 672 -85.81 650.47 -69.97 633.83 -133.9 612.77 -246.39 587.65 -344.3 562.26 -369.95 533.31 -305.89 500.95 -192.64 468.59 -99.43 433.59 -80.21 395.95 -144.34 358.04 -248.95 316.99 -330.83 272.6 -344.33 227.51 -278.62 178.76 -168.14 126.59 -66 74.3 -18.69 19.67 -40.57 -35.76 -115.39 -88.25 -198.74 -138.07 -247.87 -182.26 -239.81 -218.11 -172.85 -243.88 -71.86 -257.1 31.19 -259.19 103.9 -248.69 130.78 -227.36 111.01 -202.7 61.66 -176.44 6.39 -155.26 -37.43 -148.32 -50.09 -158.31 -27.44 -189.29 27 -241.35 103.52 -310.43 188.28 -389 272.78 -465.45 344.61 -529.03 399.33 -568.51 436.64 -578.27 457.36 -556.67 466.57 -509.24 463.21 -423.9 455.94 -376.36 465.87 -458.4 476.12 -539.59 492.94 -616.37 515.6 -667.7 538.9 -680.14 566.93 -648.7 599.29 -581.74 631.65 -501.37 667.57 -430.98 707.31 -390.37 747.68 -390.74 792.97 -428.64 843.75 -490.6 895.9 -560.09 953.75 -614.26 1016.28 -638.03 1077.44 -626.02 1139.01 -578.66 1196.4 -506.88 1243.27 -425.24 1277.24 -349.78 1293.06 -293.34 1291.48 -263.91 1271.23 -262.48 1236.6 -283.85 1201.72 -322.24 1173.37 -364.32 1165.22 -399.6 1188.88 -422.91 1245.97 -425.94 1332.21 -407.75 1429.89 -370.4 1519.63 -316.94 1577.61 -253.38 1588.95 -183.69 1552.27 -114.6 1482.91 -50.47 1415.61 7.47 1380.01 56 1400.81 95.21 1478.81 125.67 1588.53 148.71 1687.07 166.63 1732.67 179.08 1706.43 189.88 1622.55 201.06 1530.33 210.26 1480.08 222.01 1506.06 237.24 1600.43 252.17 1714.56 271.25 1785.1 294.71 1772.28 318.2 1682.35 346.09 1569.1 378.44Q1569.1 378.44 1569.1 378.44"
            opacity="0.58"></path>
        <path
            d="M1506.57 516.99C1444.2 547.19 1456.73 579.3 1534.19 612.89 1636.09 646.16 1706.1 680.24 1708.88 714.23 1643.31 746.83 1538.87 777.91 1442.24 806.09 1392.71 831.13 1406.31 851.39 1469.24 865.48 1582.62 876.28 1543.26 858.65 1401.96 837.17 1287.28 822.07 1301.52 845.73 1377.73 901.24 1417.65 956.82 1429.91 1023.19 1411.31 1095.03 1364.62 1164.15 1297.1 1223.88 1219.91 1266.15 1139.71 1286.08 1067.6 1280.89 1008.43 1251.82 962.7 1207.91 931.84 1156.56 912.58 1110.1 903.89 1082.87 900.42 1081.41 898.09 1109.98 899.06 1166.08 896.74 1239.43 889.47 1315.28 882.17 1377.41 869.02 1411.36 849.99 1408.31 830.68 1370.56 805.89 1305.86 775.69 1230.77 745.49 1167.41 710.59 1131.23 671.06 1130.14 631.26 1164.38 586.44 1222.07 536.79 1287.16 487.09 1345.18 433.47 1379.17 377.7 1381.17 325.23 1351.3 275.06 1294.17 231.4 1221.28 198.32 1145.37 178.15 1079.35 174.28 1032.5 183.86 1010.3 207.83 1012.27 241.47 1033.5 272.11 1069.35 294.68 1108.55 298.16 1142.49 273.54 1167.2 219.81 1175.06 140.3 1164.68 49.27 1137.46 -37.94 1094.77 -101.21 1041.1 -125.45 979.5 -105.69 915.42 -49.16 852.95 18.76 793.12 73.36 739.76 87.6 693.69 47.52 654.24 -38.32 621.8 -143.22 594.95 -228.29 573.39 -261.55 554.97 -229.07 537.94 -149.48 523.55 -59.47 508.43 -5.56 491.44 -19.99 475.3 -98.89 456.23 -206.76 433.69 -290.2 411.3 -305.79 385.1 -243.42 354.9 -137.88 324.7 -45.78 291.2 -14.08 254.77 -57.52 218.48 -149.08 179.59 -239.34 138.76 -284.36 98.8 -258.98 57.96 -175.21 17.56 -68.63 -20.2 16.69 -55.42 50.22 -86.21 23.68 -111.71 -43.83 -130.31 -118.82 -140.45 -171.32 -143.97 -175.84 -138.76 -129.94 -125.49 -46.06 -109.56 51.62 -90.44 137.72 -72.05 194.81 -61.59 213.55 -60.37 198.57 -72.73 158.08 -101.93 110.9 -147.49 72.41 -207.86 49.95 -277.46 53.35 -350.29 81.66 -417.6 131.34 -470.27 195.69 -501.53 266.31 -506.26 340.03 -486.36 408.29 -444.96 467.87 -391.19 520.03 -340.44 562.1 -302.96 596 -290.13 623.33 -309.17 646.11 -357.58 667.06 -427.25 685.21 -503.99 704.57 -570.58 726.72 -610.8 748.29 -615.69 773.9 -582.59 804.1 -519.23 834.3 -444.15 868.38 -376.37 905.65 -332.64 942.32 -323.61 980.94 -348.66 1019.75 -399.13 1055.75 -463.33 1088.92 -522.25 1116.39 -561.31 1137.29 -572.85 1148.86 -551.73 1149.04 -502.37 1141.8 -433.77 1124.58 -357.81 1100.46 -286.95 1071.33 -213.71 1099.11 -208.82 1185.56 -255.32 1267.27 -291.5 1355.92 -320.17 1436 -336.17 1490.57 -338.62 1509.52 -324.11 1488.1 -294.32 1437.66 -251.61 1373.6 -199.16 1321.17 -141.26 1306.72 -79.55 1340.51 -18.76 1419.95 38.59 1521.87 92.95 1614.01 141.53 1662.7 184.31 1651.3 222.55 1585.63 255.94 1496.1 285.7 1429.37 312.32 1418.42 337.19 1475.09 361.55 1577.01 384.52 1677.46 408.41 1726.88 433.97 1701.15 459.21 1612.11 486.79 1506.57 516.99Q1506.57 516.99 1506.57 516.99"
            opacity="0.65"></path>
        <path
            d="M1444.07 532.32C1383.78 560.36 1387.51 586.53 1450.65 610.59 1544.57 634.36 1623.63 655.47 1652.85 673.42 1620.6 690.41 1538.54 703.49 1439.33 712.2 1389.76 719.32 1545.51 708.89 1471.25 715.36 1383.83 730.16 1293.94 753.91 1220.97 788.25 1176.82 833 1166.34 887.44 1183.92 949.38 1222.58 1013.82 1266.43 1077.28 1303.05 1133.88 1326.96 1177.81 1329.2 1204.99 1309.84 1211.88 1271.44 1199.81 1218.25 1169.78 1156.94 1127.03 1089.94 1082.32 1024.71 1042.19 964.82 1016.1 909.02 1012.94 861.26 1034.49 820.88 1080.09 785.63 1143.85 755.66 1215.3 728.96 1281.55 704.92 1330.31 681.61 1351.48 657.56 1340 634.16 1299.85 608.7 1238.03 580.65 1168.27 552.61 1108.65 522.64 1071.67 491.41 1064.39 460.83 1088.44 430.32 1135.73 401.46 1194.44 364.28 1275.55 326.13 1294.06 332.29 1221.52 343.58 1153.47 361.42 1083.1 382.37 1020.16 397.63 971.88 406.11 942.88 401.29 933.67 377.42 943.68 333.44 966.94 269.4 997.06 192.66 1030.73 110.29 1059.24 34.87 1078.08 -19.46 1086.61 -43.98 1080.93 -32.95 1061.74 6.89 1030.81 65.55 989.72 123.78 941.75 157.35 888.27 153.14 833.06 104.55 778.64 21.16 724.63 -75.43 674.19 -155.81 628.01 -193.89 584.58 -177.35 545.5 -112.6 510.18 -29.21 477.31 39.44 447.06 60.87 418.55 20.82 391.31 -66.48 364.64 -165.95 337.9 -234.64 311.5 -241.21 284.38 -180.92 256.33 -83.16 228.29 6.54 199.98 48.34 171.76 24.83 143.86 -49.45 116.71 -138.71 91.06 -205.34 66.68 -217.89 44.97 -171.53 26.96 -83.49 11.38 14.33 0.66 88.85 -4.51 118.1 -6.93 97.83 -3.89 42.2 4.06 -55.93 17.68 -57.76 37.61 52.01 28.09 141.01 7.16 218.87 -25.66 273.64 -70.94 299.96 -126.54 298.75 -190.05 277.71 -256.84 242.56 -320.08 206.8 -374.57 179.15 -413.79 161.72 -433.78 161.46 -431.97 177.71 -408.7 208.11 -370.78 250.35 -323.27 299.7 -275.77 355.29 -240.88 411.57 -224.95 465.62 -234.1 519.82 -270.11 569.42 -327.65 613.98 -397.51 657.33 -467.04 696.13 -522.59 730.86 -552.2 765.1 -550.48 796.16 -516.35 824.2 -456.73 852.25 -386.97 876.62 -322.3 897.01 -276.6 916.9 -259.56 931.94 -272.47 941.48 -310.41 949.8 -365.83 952.16 -423.89 948.85 -471.82 945.68 -501.6 939.21 -504.9 932.22 -481.19 931.48 -434.54 936.64 -371.56 952.28 -301.83 982.08 -234.06 1027.05 -176.85 1087.71 -135.58 1158.58 -113.26 1236.08 -109.21 1311.36 -120.03 1372.53 -143.51 1412.25 -171.96 1422.69 -199.65 1404.68 -224.84 1361.82 -240.76 1305.94 -245.39 1257.95 -239.6 1231.84 -221.61 1242.06 -193.18 1292.93 -156 1375.71 -112.14 1471.07 -64.37 1551.72 -13.03 1594.84 38.54 1586.15 88.64 1532.18 138.59 1452.62 185.5 1380.41 228.98 1349.87 271.15 1375.81 310.02 1453.26 345.93 1553.35 380.87 1635.89 413.58 1664.95 444.44 1628.7 475.01 1541.83 504.27 1444.07 532.32Q1444.07 532.32 1444.07 532.32"
            opacity="0.26"></path>
        <path
            d="M1381.57 408.3C1323.77 434.19 1319.83 456.47 1368.85 475.24 1451.79 494.01 1533.44 509.3 1582.48 521.31 1582.16 533.54 1530.79 542.88 1446.54 549.91 1321.12 561.65 1294.92 589.07 1383.27 611.82 1443.65 634.01 1478.74 662.14 1478.62 697.26 1443 738.94 1378.5 787.37 1299.13 841.56 1217.78 898.19 1149.29 956 1102.01 1011.42 1079.42 1059.95 1080.2 1098.87 1098.05 1124.44 1128.88 1135.27 1161.66 1129.91 1189.2 1108.97 1210.11 1077.82 1217.5 1039.05 1211.08 998.97 1192.85 966.93 1163.21 947.09 1125.61 945.07 1081.14 964.61 1033.81 1004.15 986.45 1059.97 937.35 1124.89 890.96 1189.62 848.34 1243.8 805.93 1278.94 767.68 1288.48 733.68 1270.1 699.9 1228.65 670.03 1170.17 644.14 1105.77 607.6 1031.45 558.17 1033.28 546.03 1101.79 539.83 1157.78 538.26 1206.81 540.4 1240.03 540.78 1253.23 542.14 1242.29 541.74 1209.14 534.47 1158.54 520.37 1096.89 496.09 1032.15 460.01 971.03 411.34 920.07 350.53 883.15 283.1 862.48 211.78 857.36 143.91 865.12 89.02 884.37 52.69 908.92 41.35 934.2 54.7 959.16 90.88 977.74 141.66 987.82 190.46 990.25 226.13 982.43 234.8 965.24 207.96 940.2 147.79 908.01 64.32 870.79 -22.68 829.09 -92.66 785.3 -126.03 741.14 -114.67 695.67 -62.1 651.61 13.98 609.75 83.62 568.11 122.62 529.14 112.96 492.99 53.93 457.28 -35.33 424.16 -123.4 393.56 -177.54 363.13 -176.22 334.94 -118.42 309.06 -28.49 283.17 57.64 260.19 107.06 240.19 101.83 220.36 47.34 203.8 -32.79 190.69 -109.68 178.01 -152.1 169.02 -145.26 163.69 -91.54 158.58 -7.16 156.66 82.1 157.27 169.13 156.58 107.46 145.98 21.25 126.58 -18.84 103.88 -28.18 73.17 -4.59 33.69 47.81 -13.42 119.49 -67.54 197.63 -126.43 272.77 -185.64 333.69 -242.51 375.59 -292.32 398.51 -342.51 356.46 -337.76 323.98 -286.81 301.11 -224.87 311.79 -161.74 342.16 -192.51 369.47 -240.33 400.39 -301.71 432.76 -367.7 467.12 -427.93 500.78 -472.1 532.48 -491.86 564.59 -484.5 593.86 -449.96 619.75 -394.23 645.64 -329.84 667.53 -268.72 685.84 -222.15 704.57 -198.64 720.6 -200.55 735.06 -225.7 751.51 -269.88 768.56 -322.25 788.22 -372.56 812.73 -413.77 842.87 -436.46 880.61 -437.03 925.2 -416.04 978.23 -375.11 1038.97 -319.97 1102.14 -256.8 1167.04 -192.94 1228.29 -134.84 1249.33 -66.21 1178.94 -134.66 1265.07 -141.39 1348.66 -136.6 1432.91 -123.47 1498.03 -103.16 1527.98 -77.09 1515.47 -45.95 1464.22 -11.47 1393.93 26.2 1326.4 65.08 1287.29 103.86 1295.06 143.8 1349.85 182.42 1436.72 219.01 1526.86 255.83 1588.96 290.22 1599.31 321.87 1555.02 353.53 1471.5 382.41 1381.57 408.3Q1381.57 408.3 1381.57 408.3"
            opacity="0.83"></path>
        <path
            d="M1319.07 275.54C1264.15 299.27 1253.76 321.16 1289.29 341.39 1359.13 361.84 1437.53 381.04 1498.66 399.48 1525 418.78 1506.65 438.19 1449.66 458.46 1369.47 480.67 1287.3 504.93 1223.04 532.09 1190.18 562.29 1193.19 596.36 1226.34 634.73 1280.24 676.19 1336.98 721.62 1381.67 770.31 1405.7 819.64 1400.95 869.61 1368.75 918.03 1313.97 961.77 1245.48 999.53 1173.55 1028.61 1105.14 1047.51 1049.02 1054.65 1008.8 1049.17 985.52 1033.59 978.15 1008.02 982.79 975.39 998.09 942.24 1017.23 910.89 1035.82 886.53 1054.61 875.36 1067.44 878.97 1073.11 899.35 1074.33 936.42 1068.03 986.83 1055.39 1045.58 1038.83 1105.83 1017.9 1160.15 994.22 1200.93 968.66 1222.98 942.21 1222.38 916.03 1198.69 889.39 1157.02 863.96 1102.27 840.23 1043.27 816.5 991.56 795.03 954.8 775.45 938.14 755.4 944.32 736.3 970.29 717.11 1010.69 696.03 1060.32 673.01 1109.19 646.51 1149.64 616.1 1177.41 580.24 1186.63 537.9 1176.28 491.1 1148.17 438.17 1104.76 380.41 1051.18 322.86 992.39 265.89 934.2 214.02 881.49 158.82 821.25 152.2 777.49 201.28 788.19 242.11 804.82 280.97 823.58 307.73 841.64 311.91 859.45 290.23 872.54 241.5 879.78 172.1 882.7 92.36 878.8 17.3 868.6 -37.01 853.72 -59.37 833.64 -43.89 809.62 2.96 782.4 69.68 752.86 136.48 722.17 180.07 689.92 187.1 657.74 151.6 626.44 81.3 594.59 -4.07 564.27 -78.6 535.94 -118.83 507.49 -110.84 481.28 -55.92 457.54 26.13 433.81 107.65 413.13 162.15 395.35 172.79 377.46 138.86 362.23 73.99 349.32 -32.28 329.97 -49.34 294.61 53.07 274.4 135.7 257.31 205.29 237.28 248.4 213.2 258.5 184.44 238 150.51 196.46 111.01 143.51 67.21 95.4 18.79 63.2 -32.96 51.81 -84.97 66.03 -136.32 102.93 -184.06 158.03 -224.8 223.52 -256.54 291.3 -276.5 356.94 -284.03 413.2 -277.94 457.4 -258.67 489.21 -230.67 508.46 -195.48 517.73 -157.86 515.22 -113.41 493.69 -110.02 487.42 -163.51 485.1 -217.35 487.81 -277.55 495.51 -336.34 504.22 -385.9 517.35 -418.86 534.41 -429.75 551.84 -417.78 572.52 -383.43 596.25 -331.73 619.98 -272.73 646.2 -215.58 675 -169.2 704.16 -140.81 736.57 -133.22 772.62 -146.11 809.68 -177.73 850.93 -220.71 896.3 -267.57 942.21 -312.93 991.19 -347.89 1041.65 -367.57 1089.13 -370.57 1134.09 -354.83 1173.14 -322.5 1202.83 -276.97 1221.42 -222.63 1226.18 -164.77 1218.56 -107.43 1197.61 -55.44 1165.93 -11.83 1115.65 32.9 1077.11 55.78 1124.22 43.41 1184.45 28.94 1258.97 14.29 1336.63 1.54 1424.63 -14.37 1410.38 -17.05 1320.02 -3.11 1261.1 10.84 1224.33 28.73 1223.86 49.57 1264.01 72.36 1335.89 96.92 1421.06 122.37 1495.09 148.68 1536 175.03 1530.06 200.81 1480.25 226.8 1401.13 251.8 1319.07 275.54Q1319.07 275.54 1319.07 275.54"
            opacity="0.34"></path>
        <path
            d="M1256.57 273.84C1204.93 295.41 1189.33 318.14 1212.43 342.02 1267.97 366.07 1338.25 391.59 1403.62 418.77 1448.66 446.5 1459.95 476.32 1435.38 508.44 1380.89 541.4 1308.41 576.88 1233.55 614.77 1170.13 653.18 1129.62 693.52 1116.64 735.05 1131.42 775.57 1166.78 815.66 1212.71 853.87 1261.46 888.18 1300.45 918.08 1322.67 941.84 1325.87 958.66 1307.6 967.35 1271.07 967 1219.93 959.26 1160.48 943.29 1098.95 920.29 1038.39 894.62 984.75 866.75 940.39 839.95 893.17 813.13 856.69 827.94 856.29 876.89 860.76 923.89 864.66 977.33 866.38 1032.31 868.21 1104.09 851.95 1157.74 833.31 1125.89 819.35 1085 801.57 1034.36 780 980.77 758.42 933.22 733.56 897.46 705.5 877.66 677.27 876.57 645.57 892.6 610.43 922.54 575.01 963.4 536.24 1007.82 494.67 1049.77 453.81 1085.76 411.6 1109.57 369.74 1118.67 331.7 1113.05 297.35 1092.11 269.37 1058.18 249.66 1014.2 239.81 963.79 241.51 911.03 252.61 858.87 274.14 811.02 303.84 769.84 349.41 724.37 391.11 688.77 358.12 692.63 310.42 701.83 247.4 712.56 176.19 723.08 110.61 742.24 243.18 697.71 179.02 670.7 105.32 651.35 28.7 630.91 -31.11 609.82 -58.47 588.54 -45.06 567 6.57 545.43 80.76 523.86 156.71 502.75 213.81 482.02 237.31 461.08 223.04 440.12 177.21 418.79 111.5 396.71 45.77 373.55 -2.9 348.82 -24.13 322.6 -11.05 294.03 32.79 262.67 98.59 229.35 173.13 192.87 242.58 153.29 296.37 112.3 326.63 68.96 331.91 24.21 313.49 -19.55 279.08 -62.39 237.63 -102.46 194.87 -137.49 161.41 -166.51 142.52 -187.54 139.26 -199.96 154.04 -202.51 184.34 -194.72 227.62 -179.01 279.32 -155.18 334.65 -125.48 392.1 -95.19 446.37 -65.68 495.2 -40.94 539.3 -26.25 576.21 -22.88 606.5 -33.08 631.39 -57.98 651.32 -95.84 667.93 -144 681.24 -198.12 693.45 -252.84 705.94 -302.03 723.58 -351.49 769.65 -333.56 800.32 -269.23 821.89 -215.64 846.33 -162.82 873.24 -117.65 899.86 -86 928.36 -70.69 957.86 -72.51 986.05 -91.35 1013.8 -122.66 1039.64 -161.46 1062.17 -204.26 1080.56 -243.67 1093.06 -274.85 1099.93 -299.21 1067.67 -256.29 1033.54 -196.56 1011.45 -147.3 991.87 -95.4 979.46 -44.25 980.03 4.21 994.87 47.11 1026.4 83.12 1073.57 111.74 1133.96 132.69 1202.19 146.73 1269.12 153.83 1327.55 156.05 1368.43 154.99 1385.62 150.03 1376.26 144.33 1341.71 139.24 1291.5 133.12 1234.55 129.25 1184.57 128.21 1156.52 127.71 1157.49 130.55 1190.9 136.73 1251.75 143.76 1327.78 153.89 1401.82 166.85 1455.98 180.36 1476.6 196.25 1457.36 214.22 1404.52 232.35 1330.76 252.26 1256.57 273.84Q1256.57 273.84 1256.57 273.84"
            opacity="0.92"></path>
        <path
            d="M1194.07 404.99C1146.09 424.41 1126.58 446.07 1138.64 469.8 1179.64 493.52 1238.24 519.27 1300.69 546.83 1355.19 574.24 1388.4 603.24 1394.06 633.42 1371.9 663.02 1325.32 693.21 1263.17 723.31 1195.12 751.85 1132.24 779.22 1083.14 804.44 1053.23 826.64 1044.73 845.31 1055.6 859.45 1083.32 869.19 1120.14 873.38 1158.97 871.5 1196.14 865.19 1223.73 853.23 1238.47 836.23 1240.19 817.38 1227.17 796.09 1201.45 774.26 1164.91 755.83 1120.84 741 1072.85 732.08 1021.85 732.05 972.14 741.04 925.76 759.98 881.88 789.03 843.23 826.85 809.82 871.58 780.21 920.21 755.11 969.5 733.53 1015.42 714.65 1054.19 697.74 1082.26 681.72 1096.65 666.94 1096.64 651.83 1081.3 635.67 1051.83 619.83 1012.64 602.32 966.44 582.91 918.27 563.49 875.01 542.62 840.8 520.65 818.94 498.98 811.89 476.83 819.01 454.99 838.61 434.39 869.32 415.34 906.07 398.98 944.53 377.62 1023.52 413.39 998.47 443.84 943.11 461.91 898.77 477.08 852.2 485.84 805.95 483.78 761.31 470.14 720.61 442.97 685 402.79 654.79 350.95 630.6 290.86 612.08 229.11 599.24 170.67 590.94 122.73 586.07 91.65 585.1 81.33 585.77 93.92 586.98 125.7 589.99 172.76 592.13 226.58 592.68 291.46 592.96 281.78 580.93 198.54 568.08 128.6 558.4 64.29 546.17 19.44 531.46 3.55 516.68 21.09 499.58 69.07 480.16 135.4 460.74 204.97 439.48 262.29 416.44 295.29 393.32 298.32 368.29 272.7 341.36 223.86 314.2 164.7 285.01 108.31 253.86 64.41 222.53 43.57 189.39 49.22 154.79 79.87 120.59 130.93 85.64 193.79 50.74 260.19 17.65 320.47 -13.96 367.73 -42.91 403.68 -78.27 368.61 -114.02 321.46 -110.5 288.18 -100.33 261.16 -83.87 243.37 -62.15 234.54 -38.83 237.45 -13.88 251.08 10.23 273.94 29.29 304.63 42.65 340.56 47.92 381.26 42.5 423.48 26.49 465.28 -0.27 507.93 -36.9 548.16 -81.12 585.27 -129.86 621.6 -179.28 654.56 -225.3 684.24 -263.51 713.16 -290.61 739.32 -303.45 762.99 -300.25 786.41 -282.23 807.81 -250 827.22 -206.74 846.64 -158.58 863.62 -110.4 878.02 -67.37 897.73 -23.52 919.43 -21.77 919.83 -58.98 917.94 -93.94 912.2 -130.59 903.21 -164.99 881.62 -216.22 909.37 -153.42 958.97 -93.85 1004.54 -49.08 1058.21 -3.56 1116.94 40.73 1174.84 83.18 1228.48 121.8 1272.04 155.89 1300.44 185.55 1310.62 210.26 1300.62 230.44 1273.57 246.23 1232.12 258.51 1183.04 268.2 1119.87 277.57 1111.13 291.09 1182.71 298.87 1250.06 303.92 1318.49 310.88 1374.83 320.09 1407.95 329.16 1410.65 340.67 1381.51 354.77 1328.03 368.86 1260.44 385.57 1194.1 404.98Q1194.07 404.99 1194.07 404.99"
            opacity="0.30"></path>
        <path
            d="M1131.6 530.88C1087.63 548.14 1065.51 566.15 1068.19 584.75 1095.27 603.23 1140.1 622.06 1193.92 640.91 1295.43 677.22 1330.33 710.7 1280.67 737.14 1172.88 756.82 1059.25 764.28 985.7 756.78 971.77 741.93 1007.6 715.59 1062.96 684.16 1118.81 663.15 1144.95 655.47 1136.33 671.51 1098.77 717.13 1039.23 788.26 972.22 874.37 898.6 956.92 831.46 1016.48 774.98 1034.37 747.09 1026.36 721.88 1006.67 699.39 976.64 677.02 940 657.16 898.5 639.9 855.76 622.64 816.91 608.39 784.8 597.15 761.91 586.02 750.31 578.1 749.89 573.45 759.95 564.82 808.7 569.17 874.23 582.97 933.46 590.17 973.77 592.86 978.43 577.21 948.18 532.64 890.33 456.94 815.05 355.85 736.01 255.25 659.6 178.5 595.2 156.48 544.94 194.09 507.51 276.76 480.85 359.25 459.97 383.61 445.46 329.07 429.97 214.24 409.92 153.76 400.36 103.85 389.1 73.35 375.94 67.26 362.85 87.63 347.72 131.6 330.46 190.11 313.2 252.62 294.22 307.97 273.7 346.9 253.24 363.74 231.37 357.09 208.39 282.46 163.35 180.61 116.04 117.08 70.73 124.62 31.79 204.05 1.6 315.39 -14.16 418.64 -17.11 479.05 -2.26 491.35 28.89 461.96 62.7 417.08 97.05 379.28 118.97 351.83 113.28 350.3 77.67 370.57 12.07 405.3 -72.45 450.16 -157.63 496.26 -219.71 520.52 -236.43 543.66 -241.09 565.13 -232.92 586.76 -213.44 606.35 -183.09 623.61 -144.24 640.87 -101.51 655.39 -58.25 667.37 -18.2 684.52 27.63 725.76 30.18 759.82 -47.02 799.37 -107.83 857.75 -148.01 938.4 -157.69 1029.4 -137.79 1123.83 -89.19 1198.46 -22.94 1231.4 53.73 1211.92 129.62 1144.62 197.67 1069.21 258.37 1020.73 307.76 1038.5 347.89 1127.34 381.27 1248.83 410.59 1336.78 439.38 1350.09 453.07 1338.33 467.37 1302.81 482.5 1250.87 497.52 1190.12 513.62 1131.6 530.88Q1131.6 530.88 1131.6 530.88"
            opacity="0.86"></path>
        <path
            d="M1069.07 518.94C1006.7 549.14 1017.08 574 1087.89 592.79 1217.34 615.49 1161.14 616.4 1015.95 596.45 915.16 579.17 934.68 597.93 987.46 661.35 1016.33 726.15 1026.36 801.1 1018.81 874.8 1000.8 934.16 972.02 967.5 938.86 965.33 902.74 930.86 868.11 868.36 837.9 793.27 807.7 729.9 783.36 692.41 762.52 687.41 738.72 715.78 712.55 764.27 678.22 818.03 633.43 868.8 573.66 899.94 498.24 906.23 417.95 889.72 336.5 850.63 270.5 796.73 235.96 732.76 241.95 666.66 290.38 604.33 357.85 544.95 423.31 493.36 452.82 449.45 422.47 409.93 338.26 375.43 230.66 343.95 148.2 313.91 131.7 284.2 194.07 254 299.61 223.79 392.45 194.53 428.13 167.6 392.99 142.13 313.36 121.68 232.73 108.86 183.14 100.42 190.87 102.27 249.42 115.1 340.49 130.88 436.09 153.61 513.74 178.01 564.5 192.32 584.67 195.6 583.46 180.67 564.39 142.94 543.36 84.71 529.33 11.81 516.17 -64.08 515.61 -129.77 527.07 -169.8 540.56 -176.46 563.1 -145.1 593.3 -81.74 623.5 -6.66 659.94 61.96 703.41 108.1 748.9 121.93 804.4 105.79 869.91 68.57 936.28 17 1007.05 -30.85 1072.67 -64.2 1120.44 -81.44 1143.64 -75.09 1132.47 -48.24 1094.41 -5.36 1034.62 48.8 975 107.23 947.89 169.17 967.23 228.01 1038.96 281.04 1141.72 332.21 1238.55 377.22 1285.36 416.44 1261.35 454.61 1174.65 488.73 1069.1 518.93Q1069.07 518.94 1069.07 518.94"
            opacity="0.57"></path>
        <path
            d="M1006.57 381.73C948.77 407.62 943.2 426.36 986.91 438.49 1063.64 450.89 1138.8 457.41 1185.48 459.53 1192.65 463.95 1155.46 467.07 1087.6 472.07 1003.75 484.47 923.52 503.96 859.9 533.59 816.89 574.39 796.43 626.26 792.19 686.89 802.4 750.34 816.08 811.85 826.34 862.8 838.31 896.43 841.43 906.64 834.56 889.85 826.96 851.69 810.12 795.16 784.23 730.77 758.34 675.04 724.63 636.84 683.41 621.49 641.45 631.61 591.24 660.52 534.4 699.99 479.28 746.19 422.97 786.24 372.86 813.74 337.2 829.21 320.49 826.98 329.57 809.12 359.26 779.04 408.79 738.96 465.69 693.79 506.59 644.1 520.57 594.76 494.42 548.59 428.76 502.35 338.87 460.67 252.15 424.31 198.45 388.33 198.77 357.16 256.57 331.27 346.5 305.38 433.11 286 484.83 273.16 485.57 260.7 441.8 255.28 375.33 256.65 283.76 261.31 311.17 281.18 412.65 278.79 491.07 262.72 561.21 234.25 617.08 191.84 659.94 137.38 688.53 74.12 707.84 8.94 724.04 -71.32 761.67 -91.44 796.41 -19.24 822.29 45.14 855.14 106.92 892.85 155.08 928.9 181.86 966.22 186.39 999.77 171.74 1025.33 139.76 1039.38 101.48 1036.43 64.98 1020.46 31.3 987.48 10.13 943 3.26 904.39 7.56 877.19 25.23 876.1 52.74 910.54 87.63 977.9 127.15 1066.37 167.59 1151.82 210.34 1210.34 250.91 1219.6 287.33 1177.88 324.03 1096.53 355.83 1006.6 381.72Q1006.57 381.73 1006.57 381.73"
            opacity="0.08"></path>
        <path
            d="M944.41 263.65C892.61 285.22 875.64 304.4 894.72 321.71 944.78 339.74 1007.5 357.31 1065.3 375.75 1108.86 396.9 1124.8 421.28 1112.34 450.32 1075.67 484.02 1021.15 523.77 959.02 569.36 893.55 618 834.05 669.65 784.34 720.8 742.57 766.91 711.03 805.08 687.13 830.35 668.9 840.95 653.53 833.84 637.97 808.51 623.88 770.71 606.67 721.75 585.1 668.16 563.52 620.61 538.61 584.08 512.02 562.32 486.89 558.07 463.01 568.45 443.86 589.75 430.37 621.15 426.38 654.5 434.9 684.95 451.36 713.29 479.89 732.6 517.09 741.78 550.93 743.81 579.87 735.99 594.08 720.32 584.07 699.2 548.79 673.32 489.42 645.23 415.81 614.85 340.81 584.71 282.42 556.58 255.01 527.97 267.61 502.38 319.41 480.81 393.66 459.24 469.84 442.7 527.86 430.62 554.74 418.07 547.83 408.96 514.07 401.95 460.79 392.65 406.16 383 363.04 370.87 335.05 353.3 330.83 330.15 348.19 299.84 383.08 262.38 430.34 217.49 482.47 166.69 538.81 113.78 591.79 61.08 638.44 13.86 683.18 -23.24 721.06 -45.9 752.56 -49.97 782.92 -36.54 808.76 -4.38 830.33 43.16 851.9 96.75 868.19 150.08 878.51 196.21 888.39 239.56 863.73 235.6 831.91 202.54 813.03 173.85 796.74 147.78 790.13 127.42 801.05 110.11 830.85 101.32 881.3 100.88 946.88 105.08 1020.86 116.23 1089.95 132.47 1139.53 151.41 1158.72 173.09 1140.16 195.75 1090.46 219.13 1018.66 242.08 944.41 263.65Q944.41 263.65 944.41 263.65"
            opacity="0.29"></path>
        <path
            d="M881.59 289.26C816.27 323.78 841.32 368.92 921.87 424.49 1012.81 483.5 1050.56 555.84 1027.99 633.83 961.77 703.26 876.53 756.51 800.91 773.4 726.01 753.08 670.22 691.35 635.7 605.74 596.19 516.54 637.77 552.16 674.44 607.8 651.76 637.09 577.4 643.35 461.16 629.83 355.31 610.04 316.27 579.86 381.59 545.34 502.45 510.82 598.76 475.23 620.66 435.21 567.85 388.91 491.6 328.77 439.84 254.24 417.46 175.05 439.52 95.07 483.6 36.02 540.59 11.72 593.05 35.34 627.57 105.74 662.09 191.35 675.4 267.07 678.23 312.7 693.97 321.11 725.77 304.46 793.39 280.28 946.83 238.29 1043.61 244.43 881.59 289.26Q881.59 289.26 881.59 289.26"
            opacity="0.70"></path>
        <path
            d="M819.37 431.27C761.39 457.16 752.37 494.58 784.86 539.09 847.64 581.83 906.69 627.2 942.64 666.53 961.03 694.48 952.17 705.21 927.63 691.47 895.05 660.17 861.52 607.56 835.63 543.17 809.74 487.44 793.95 447.19 781.66 426.66 761.33 427.7 729.8 440.69 677.47 456.43 607.6 478.63 521.09 492.58 439.33 493.96 387.87 494.77 386.39 482.49 444.37 456.6 534.36 430.72 621.79 393.67 676.86 347.99 689.47 301.75 668.58 247.4 635.24 191.26 577.46 121.37 557.97 97.56 590.3 168.17 616.19 232.56 652.63 295.66 700.96 345.94 753.94 378.66 823.05 395.39 900.4 401.37 991.85 393.48 947.83 399.43 819.37 431.27Q819.37 431.27 819.37 431.27"
            opacity="0.79"></path>
        <path
            d="M756.6 540.43C698.46 593.31 814.93 592.36 788.35 480.76 753.83 410.35 675.46 366.21 571.6 347.32 483.62 349.61 441.28 342.85 506.6 308.33 627.45 273.82 728 218.07 768.31 170.54 763.25 144.19 757.89 160.35 792.41 230.76 826.93 316.36 894.78 396.33 945.08 448.51 950.01 480.13 877.45 505.92 756.6 540.43Q756.6 540.43 756.6 540.43"
            opacity="0.60"></path>
    </g>
</svg>